<svg version="1.1" xmlns="http://www.w3.org/2000/svg" style="display: block;" viewBox="0 0 2048 2048" width="1024" height="1024" preserveAspectRatio="none">
<path transform="translate(0,0)" fill="rgb(104,69,40)" d="M 774.619 616.129 C 789.31 615.331 828.704 615.074 842.875 616.143 C 850.563 621.283 878.941 649.789 886.958 657.581 C 916.456 686.239 945.8 715.054 974.99 744.025 C 989.962 758.75 1009.6 779.238 1025.41 792.325 C 1037.19 784.295 1054.9 765.466 1065.95 754.691 L 1163.58 658.325 C 1173.33 648.845 1199.07 623.213 1208.47 616.453 C 1222.29 615.186 1268 613.915 1278.63 619.658 C 1281.08 622.429 1282.13 631.426 1282.15 635.215 C 1282.35 668.034 1282.18 701.302 1282.18 734.096 L 1282.35 925.773 C 1309.06 940.154 1312.23 976.615 1286.92 993.153 C 1277.95 999.018 1266.99 1001.01 1256.53 998.674 C 1221.29 990.87 1214.35 945.089 1246.92 926.045 C 1244.83 860.376 1246.52 785.869 1246.7 719.897 C 1246.66 705.29 1247.48 665.51 1245.81 653.052 L 1221.87 653.218 C 1180.98 692.647 1140.5 732.505 1100.44 772.786 C 1082.07 791.024 1063.54 810.984 1043.79 827.659 C 1038.59 833.008 1016.21 834.779 1010.74 830.617 C 995.932 819.352 979.255 801.593 966.074 788.5 L 888.245 710.994 C 871.077 693.775 847.427 669.312 829.314 653.99 L 801.731 653.131 C 803.221 664.22 802.555 683.722 802.494 695.633 L 801.352 786.461 C 801.053 849.782 804.038 913.33 801.849 976.691 C 801.311 988.707 800.137 996.746 786.286 997.299 C 775.361 997.736 766.027 997.441 765.91 983.565 C 765.682 956.649 765.816 929.625 765.838 902.671 L 765.987 741.066 L 765.919 660.837 C 765.91 649.737 765.706 637.25 766.234 626.136 C 766.447 621.656 771.067 618.432 774.619 616.129 z"/>
<path transform="translate(0,0)" fill="rgb(104,69,40)" d="M 1540.98 1376.76 C 1540.99 1367.66 1538.16 1333.34 1546.01 1329.65 C 1583.94 1311.8 1575.98 1354.29 1576 1376.55 C 1584.24 1382.17 1588.39 1385.67 1593.11 1394.45 C 1601.16 1413.69 1598.26 1433.43 1579.67 1445.19 C 1570.59 1450.84 1559.6 1452.58 1549.21 1450 C 1538.56 1447.35 1530.64 1440.93 1524.98 1431.67 C 1437.65 1432.87 1347.81 1431.55 1260.2 1431.55 L 742.118 1431.8 L 552.439 1431.85 C 530.989 1431.86 444.089 1433.55 431.393 1429.22 C 430.386 1428.34 429.744 1427.55 429.268 1426.28 C 428.152 1423.31 427.701 1420.01 427.522 1416.85 C 426.964 1407.07 426.986 1335.26 429.347 1331.34 C 431.495 1327.78 435.918 1327.12 439.621 1326.37 C 454.898 1326.41 460.905 1326.99 460.979 1345.27 C 461.048 1362.34 460.785 1379.46 461.025 1396.54 C 471.128 1395.74 487.507 1396.19 497.931 1396.18 L 564.882 1396.15 L 775.998 1396.1 L 1248.78 1396.25 C 1339.64 1396.31 1432.97 1397.2 1523.63 1395.96 C 1528.95 1384.88 1530.98 1383.59 1540.98 1376.76 z"/>
<path transform="translate(0,0)" fill="rgb(104,69,40)" d="M 460.05 1082.53 C 511.538 1078.06 557.019 1115.89 562.002 1167.33 C 566.985 1218.77 529.611 1264.63 478.222 1270.13 C 444.519 1273.74 411.474 1258.97 391.683 1231.45 C 371.891 1203.93 368.401 1167.9 382.543 1137.1 C 396.685 1106.29 426.28 1085.46 460.05 1082.53 z M 476.38 1235.78 C 509.2 1231.41 532.2 1201.17 527.649 1168.38 C 523.097 1135.58 492.732 1112.75 459.963 1117.49 C 427.452 1122.18 404.84 1152.26 409.355 1184.8 C 413.871 1217.33 443.819 1240.11 476.38 1235.78 z"/>
<path transform="translate(0,0)" fill="rgb(104,69,40)" d="M 295.351 1085.99 L 334.014 1086.1 L 334.666 1265.94 L 298.537 1265.8 C 298.096 1238.35 298.8 1209.93 298.638 1182.25 C 297.57 1175.46 298.494 1150.4 299.514 1143.87 C 294.397 1154.44 253.13 1223.03 244.506 1222.62 C 235.016 1216.34 198.489 1158.32 191.78 1145.96 L 191.687 1265.59 C 182.856 1264.93 165.326 1265.62 155.84 1265.74 C 156.601 1206.64 156.238 1145.2 155.909 1086.07 L 195.323 1086.07 C 211.323 1111.71 230.357 1139.55 245.004 1165.41 C 261.883 1139.55 278.975 1112.18 295.351 1085.99 z"/>
<path transform="translate(0,0)" fill="rgb(104,69,40)" d="M 1056.01 1086.01 C 1069.45 1085.91 1082.9 1085.93 1096.34 1086.06 C 1099.84 1093.63 1103.52 1103.11 1106.52 1110.95 C 1126.3 1162.61 1148.43 1213.77 1167.94 1265.46 C 1157.2 1266.29 1140.7 1265.91 1129.36 1266.14 C 1124.62 1252.08 1118.78 1237.53 1113.43 1223.61 C 1108.48 1223.44 1104.93 1223.57 1100.03 1223.82 C 1080.38 1223.4 1058.32 1224.48 1039.17 1223.32 C 1034.56 1233.08 1027.07 1255 1022.85 1265.94 C 1010.23 1266.05 997.613 1265.99 984.994 1265.75 C 997.93 1228.23 1016.15 1188.08 1030.14 1150.4 C 1035.21 1136.76 1050.12 1096.18 1056.01 1086.01 z M 1080.05 1192.04 L 1101.97 1192.16 C 1097.2 1181.08 1080.21 1133.16 1075.6 1126.75 C 1068.09 1148.61 1059.21 1170.54 1051.99 1192.1 L 1080.05 1192.04 z"/>
<path transform="translate(0,0)" fill="rgb(104,69,40)" d="M 797.892 1086.01 L 833.679 1086 C 832.827 1093.94 833.698 1108.06 834.205 1116.35 C 835.179 1132.26 835.201 1142.12 833.55 1157.98 C 847.904 1156.08 898.355 1157.28 913.806 1157.84 C 913.384 1137.31 914.617 1105.15 913.203 1086.33 C 924.044 1086.72 937.391 1086.51 948.236 1086.24 C 948.615 1145.24 948.602 1204.24 948.196 1263.25 L 947.449 1265.15 C 942.442 1266.44 919.989 1266.02 913.056 1266 C 914.077 1241.34 913.39 1214.62 913.083 1189.86 L 833.749 1190.07 C 834.743 1217.72 834.006 1238.28 833.713 1265.93 C 821.778 1265.65 809.839 1265.59 797.902 1265.75 L 797.892 1086.01 z"/>
<path transform="translate(0,0)" fill="rgb(104,69,40)" d="M 1724.16 1086.38 C 1734.74 1085.79 1748.52 1086.06 1759.29 1086 C 1759.48 1109.88 1759.48 1133.76 1759.28 1157.64 C 1777.68 1156.86 1820.52 1156.75 1838.49 1157.76 C 1838.08 1134.02 1839.13 1109.72 1838.1 1086.04 L 1874.04 1086.02 C 1873.78 1122.61 1873.73 1159.2 1873.89 1195.79 C 1874.06 1210.53 1876.31 1251.78 1873.37 1265.69 C 1861.46 1266.01 1850.02 1265.81 1838.12 1265.63 C 1839.13 1249.94 1838.7 1205.75 1837.98 1190.04 C 1811.8 1189.91 1785.62 1189.96 1759.44 1190.19 C 1760.14 1214.38 1759.65 1241.43 1759.72 1265.82 C 1747.89 1265.94 1736.2 1265.74 1724.3 1265.95 C 1723.54 1206.29 1724.96 1146.08 1724.16 1086.38 z"/>
<path transform="translate(0,0)" fill="rgb(104,69,40)" d="M 1353.84 1086.1 L 1470.46 1086.25 C 1471.09 1096.05 1470.88 1108.09 1470.96 1118.06 C 1444.18 1118.03 1416.57 1117.7 1389.86 1118.3 L 1390 1157.92 C 1414.68 1157.57 1439.36 1157.57 1464.04 1157.91 C 1463.57 1167.92 1463.7 1179.8 1463.58 1189.96 C 1439.28 1190.09 1414.19 1189.44 1389.98 1190.23 L 1389.98 1232.06 C 1417.09 1231.81 1444.2 1231.9 1471.3 1232.31 C 1471 1243.02 1471.2 1254.9 1471.16 1265.7 C 1432.31 1265.75 1392.59 1265.32 1353.83 1265.91 C 1354.75 1206.62 1353.82 1145.59 1353.84 1086.1 z"/>
<path transform="translate(0,0)" fill="rgb(104,69,40)" d="M 1595.96 1083.41 C 1603.66 1082.83 1611.41 1083.16 1619.03 1084.39 C 1650.49 1089.52 1666.86 1106.83 1684.34 1131.27 L 1651.44 1145.91 C 1640.59 1129.56 1624.73 1115 1603.97 1115.78 C 1570.28 1117.06 1546.75 1142.63 1546.48 1175.73 C 1546.08 1226.89 1603.12 1259.63 1642.51 1220.01 L 1649.73 1210.31 C 1660.85 1214.09 1671.62 1218.81 1681.93 1224.43 C 1651.79 1273.07 1590.42 1286.05 1545.48 1249.9 C 1525.94 1234.47 1513.48 1211.78 1510.96 1187.01 C 1508.2 1161.04 1516.01 1135.06 1532.62 1114.91 C 1549.89 1093.96 1569.66 1085.76 1595.96 1083.41 z"/>
<path transform="translate(0,0)" fill="rgb(104,69,40)" d="M 676.744 1083.42 C 715.406 1080.97 745.18 1096.22 762.542 1131.15 C 753.624 1135.8 741.843 1140.82 732.621 1144.67 C 730.637 1141.8 728.513 1139.03 726.259 1136.37 C 692.851 1097.09 629.803 1119.52 629.041 1170.86 C 628.764 1189.5 631.766 1205.73 645.205 1219.73 C 669.947 1245.5 699.565 1242.38 724.316 1219.1 C 726.708 1216.29 729.644 1212.2 731.963 1209.19 C 741.02 1214.01 753.824 1219.29 763.382 1223.58 C 761.041 1227.39 758.889 1231.18 756.176 1234.76 C 741.771 1253.74 720.388 1266.18 696.772 1269.33 C 671.956 1272.45 646.927 1265.45 627.34 1249.89 C 577.086 1210.26 582.67 1125.25 639.07 1094.38 C 652.675 1086.93 661.52 1085.23 676.744 1083.42 z"/>
<path transform="translate(0,0)" fill="rgb(104,69,40)" d="M 1331.59 830.153 C 1382.01 829.11 1434.96 830.022 1485.65 830.003 L 1535.02 829.992 C 1540.05 829.992 1572.54 828.832 1573.35 834.196 C 1578.13 865.825 1574.17 900.157 1575.04 932.384 C 1575.48 948.563 1575.21 965.046 1575.58 981.259 C 1575.74 990.413 1573.76 994.584 1565.24 996.985 C 1559.62 997.15 1545.93 998.022 1543.7 993.144 C 1538.99 982.865 1540.66 952.787 1540.67 941.656 L 1540.93 862.704 C 1525.41 861.794 1503.31 862.561 1487.31 862.606 L 1385.93 862.9 C 1370.52 862.972 1348.54 864.362 1333.9 862.857 C 1318.59 861.283 1314.73 840.026 1331.59 830.153 z"/>
<path transform="translate(0,0)" fill="rgb(104,69,40)" d="M 432.495 811.25 C 453.216 808.786 463.896 811.528 474.883 830.171 L 651.062 830.166 C 671.144 830.346 691.21 829.578 711.228 830.197 C 731.714 830.831 732.149 861.42 711.263 862.737 C 700.816 863.395 690.694 862.957 680.25 862.795 C 612.489 862.932 542.286 861.89 474.779 863.123 C 466.83 882.274 449.349 891.049 429.576 883.16 C 420.178 879.407 412.68 872.036 408.766 862.704 C 399.31 840.349 410.928 819.881 432.495 811.25 z"/>
<path transform="translate(0,0)" fill="rgb(104,69,40)" d="M 1170.78 1085.85 C 1216.49 1086.27 1262.18 1085.22 1308.02 1086.37 L 1307.96 1117.92 L 1258.84 1117.97 C 1257.96 1149.88 1258.91 1186.24 1258.98 1218.5 L 1259.07 1265.97 L 1223.47 1265.77 C 1224.04 1216.53 1223.97 1167.29 1223.26 1118.05 L 1170.93 1118.02 C 1171.21 1107.38 1170.93 1096.51 1170.78 1085.85 z"/>
</svg>